<svg id="svg8" width="400" height="227" version="1.1" viewBox="0 0 106 60.1" xmlns="http://www.w3.org/2000/svg">
 <g id="layer3" fill="#f00" stroke="#000" stroke-linecap="round" stroke-linejoin="round" stroke-width="1.68">
  <path id="path849-8" d="m84.4 19.5c-3.68 3.14-9.21 2.7-12.3-0.975-3.14-3.68-2.7-9.21 0.975-12.3z" stop-color="#000000" style="font-variation-settings:normal"/>
  <path id="path947" d="m73.2 9.33 1.16 1.41" stop-color="#000000" style="font-variation-settings:normal"/>
  <path id="path949" d="m71.9 12.6 1.64 0.439" stop-color="#000000" style="font-variation-settings:normal"/>
  <path id="path951" d="m73.5 17.1 1.31-1.09" stop-color="#000000" style="font-variation-settings:normal"/>
  <path id="path953" d="m77.2 19.4 0.251-1.44" stop-color="#000000" style="font-variation-settings:normal"/>
  <path id="path955" d="m81.3 19-1.15-1.44" stop-color="#000000" style="font-variation-settings:normal"/>
 </g>
 <g id="g1300">
  <circle id="circle1298" cx="47.7" cy="11.8" r="4.67" fill="#fc0" stop-color="#000000" stroke="#000" stroke-linecap="round" stroke-linejoin="round" stroke-width="1.68" style="font-variation-settings:normal"/>
 </g>
 <g id="layer11" fill="#37c837" stroke="#000" stroke-linecap="round" stroke-linejoin="round" stroke-width="1.68">
  <path id="path897" d="m61 25.7c-10.4-3.92-10.1-14.1-7.92-22.7 9.74 7.16 12.3 14.7 7.92 22.7z" stop-color="#000000" style="font-variation-settings:normal"/>
  <path id="path899" d="m54.8 8.32 6.15 17.4" stop-color="#000000" style="font-variation-settings:normal"/>
 </g>
 <g id="layer5" fill="#2ca02c" stroke="#000" stroke-linecap="round" stroke-linejoin="round" stroke-width="1.68">
  <path id="path858" d="m43.8 10.1a5.39 5.39 0 0 0-5.39 5.39 5.39 5.39 0 0 0 0.643 2.55 5.27 5.27 0 0 0-3.99 5.11 5.27 5.27 0 0 0 5.27 5.27 5.27 5.27 0 0 0 5.27-5.27 5.27 5.27 0 0 0-0.585-2.41 5.39 5.39 0 0 0 1.57-0.638 5.03 5.03 0 0 0 1.17 0.767 4.67 4.67 0 0 0-1.2 3.12 4.67 4.67 0 0 0 4.67 4.67 4.67 4.67 0 0 0 4.67-4.67 4.67 4.67 0 0 0-2.44-4.1 5.03 5.03 0 0 0 1.48-3.56 5.03 5.03 0 0 0-5.03-5.03 5.03 5.03 0 0 0-2.18 0.499 5.39 5.39 0 0 0-3.92-1.7z" stop-color="#000000" style="font-variation-settings:normal"/>
  <path id="path1161" d="m42.1 17.5c-0.204-3.51 3.39-2.12 3.39-2.12" stop-color="#000000" style="font-variation-settings:normal"/>
  <path id="path1161-7" d="m51 20.5c0.204-3.51-3.39-2.12-3.39-2.12" stop-color="#000000" style="font-variation-settings:normal"/>
 </g>
 <g id="g1296">
  <circle id="circle1294" cx="67.5" cy="14.9" r="4.67" fill="#fc0" stop-color="#000000" stroke="#000" stroke-linecap="round" stroke-linejoin="round" stroke-width="1.68" style="font-variation-settings:normal"/>
 </g>
 <g id="g1304">
  <circle id="circle1302" cx="80" cy="18.7" r="4.67" fill="#fc0" stop-color="#000000" stroke="#000" stroke-linecap="round" stroke-linejoin="round" stroke-width="1.68" style="font-variation-settings:normal"/>
 </g>
 <g id="g1264" fill="#2ca02c" stroke="#000" stroke-linecap="round" stroke-linejoin="round" stroke-width="1.68">
  <path id="path1258" d="m75.3 15.5a5.39 5.39 0 0 1 5.39 5.39 5.39 5.39 0 0 1-0.643 2.55 5.27 5.27 0 0 1 3.99 5.11 5.27 5.27 0 0 1-5.27 5.27 5.27 5.27 0 0 1-5.27-5.27 5.27 5.27 0 0 1 0.585-2.41 5.39 5.39 0 0 1-1.57-0.638 5.03 5.03 0 0 1-1.17 0.767 4.67 4.67 0 0 1 1.2 3.12 4.67 4.67 0 0 1-4.67 4.67 4.67 4.67 0 0 1-4.67-4.67 4.67 4.67 0 0 1 2.44-4.1 5.03 5.03 0 0 1-1.48-3.56 5.03 5.03 0 0 1 5.03-5.03 5.03 5.03 0 0 1 2.18 0.499 5.39 5.39 0 0 1 3.92-1.7z" stop-color="#000000" style="font-variation-settings:normal"/>
  <path id="path1260" d="m77 22.8c0.204-3.51-3.39-2.12-3.39-2.12" stop-color="#000000" style="font-variation-settings:normal"/>
  <path id="path1262" d="m68.2 25.9c-0.204-3.51 3.39-2.12 3.39-2.12" stop-color="#000000" style="font-variation-settings:normal"/>
 </g>
 <g id="g1256" fill="#f00" stroke="#000" stroke-linecap="round" stroke-linejoin="round" stroke-width="1.68">
  <path id="path1244" d="m69.7 19.1c5e-6 4.84-3.92 8.76-8.76 8.76-4.84 0-8.76-3.92-8.76-8.76z" stop-color="#000000" style="font-variation-settings:normal"/>
  <path id="path1246" d="m54.6 21.1 1.82 0.0299" stop-color="#000000" style="font-variation-settings:normal"/>
  <path id="path1248" d="m56.3 24.2 1.4-0.96" stop-color="#000000" style="font-variation-settings:normal"/>
  <path id="path1250" d="m60.8 25.9 0.02-1.71" stop-color="#000000" style="font-variation-settings:normal"/>
  <path id="path1252" d="m64.9 24.6-0.929-1.12" stop-color="#000000" style="font-variation-settings:normal"/>
  <path id="path1254" d="m67.2 21.1-1.85-0.0598" stop-color="#000000" style="font-variation-settings:normal"/>
 </g>
 <g id="layer2" fill="#37c837" stroke="#000" stroke-linecap="round" stroke-linejoin="round" stroke-width="1.68">
  <path id="path870" d="m48.4 34c-10.9-1.88-12.6-12-12.1-20.8 10.9 5.18 14.9 12.1 12.1 20.8z" stop-color="#000000" style="font-variation-settings:normal"/>
  <path id="path872" d="m39.1 18.1 9.34 15.9" stop-color="#000000" style="font-variation-settings:normal"/>
  <path id="path893" d="m75 37.6c10.9-1.88 12.6-12 12.1-20.8-10.9 5.18-14.9 12.1-12.1 20.8z" stop-color="#000000" style="font-variation-settings:normal"/>
  <path id="path895" d="m84.3 21.7-9.34 15.9" stop-color="#000000" style="font-variation-settings:normal"/>
 </g>
 <g id="layer4">
  <circle id="path866-9" cx="49.8" cy="23.6" r="4.67" fill="#fc0" stop-color="#000000" stroke="#000" stroke-linecap="round" stroke-linejoin="round" stroke-width="1.68" style="font-variation-settings:normal"/>
 </g>
 <g id="g1292">
  <circle id="circle1290" cx="49.8" cy="23.6" r="4.67" fill="#fc0" stop-color="#000000" stroke="#000" stroke-linecap="round" stroke-linejoin="round" stroke-width="1.68" style="font-variation-settings:normal"/>
 </g>
 <g id="layer1">
  <path id="path849" d="m87.8 25.7a26.8 26.8 0 0 1-26.8 26.8 26.8 26.8 0 0 1-26.8-26.8z" fill="#ececec" stop-color="#000000" stroke="#000" stroke-linejoin="round" stroke-width="1.9"/>
 </g>
 <g id="layer6" stroke="#000" stroke-linecap="round" stroke-linejoin="round" stroke-width="1.68">
  <path id="path1008" d="m47.4 35.7c4.16 18.4-10.9 17.9-26.3 17-8.45-0.449-17.5 1.42-18.5-3.43-0.276-5.76 6.4-8.39 14.9-15.3 7.52-6.07 23.4-15.6 29.9 1.67z" fill="#df5" stop-color="#000000" style="font-variation-settings:normal"/>
  <ellipse id="path1010" transform="rotate(252)" cx="-48.5" cy="19.7" rx="6.6" ry="7.36" fill="#a40" stop-color="#000000" style="font-variation-settings:normal"/>
 </g>
 <g id="layer9">
  <path id="path1132" d="m89.8 33.4c-7.48-2.2e-5 -13.5 4.85-13.5 10.8-4.7e-5 3.39 0.296 6.51 5.37 8.64h16.3c4.91-2.05 5.37-5.25 5.37-8.64-1.5e-4 -5.98-6.06-10.8-13.5-10.8z" fill="#f00" stop-color="#000000" stroke="#000" stroke-linecap="round" stroke-linejoin="round" stroke-width="1.68"/>
 </g>
 <g id="layer10" stroke="#000" stroke-linecap="round" stroke-linejoin="round" stroke-width="1.68">
  <path id="path1152" d="m80.5 32.8c4.54-0.499 10.4-1.31 17.4 0-0.631 1.04-1.35 2.05-3.85 2.62 1.27 0.542 1.9 1.36 2.05 2.38-1.71 0.0517-4.06-0.746-6.72-1.97-2.08 1.07-4.17 1.83-6.25 2.11 0.453-1.15 0.981-2.27 1.91-3.26-1.68-0.087-3.14-0.845-4.51-1.89z" fill="#5fd35f"/>
  <path id="path1154" d="m89.6 31.6v-1.92" fill="none"/>
 </g>
 <g id="layer8">
  <path id="rect1061" d="m79.7 36.6c-0.273 0.0311-0.545 0.116-0.8 0.26l-11.1 6.22c-1.02 0.575-1.38 1.86-0.808 2.88 0.327 0.581 0.886 0.939 1.49 1.04-0.148 0.392-0.184 0.832-0.0716 1.27 0.144 0.564 0.501 1.01 0.962 1.29-0.434 0.382-0.715 0.933-0.722 1.56-0.0134 1.17 0.92 2.13 2.09 2.14l12.7 0.145c1.17 0.0134 2.13-0.92 2.14-2.09 0.0134-1.17-0.92-2.13-2.09-2.14l-9.64-0.11 9.44-2.41c1.14-0.29 1.82-1.44 1.53-2.57-0.29-1.14-1.44-1.82-2.57-1.53l-8.92 2.28 7.63-4.29c1.02-0.575 1.38-1.86 0.807-2.88-0.431-0.766-1.26-1.16-2.08-1.07z" fill="#cf0" stop-color="#000000" stroke="#000" stroke-linecap="round" stroke-linejoin="round" stroke-width="1.68" style="font-variation-settings:normal"/>
 </g>
 <g id="layer7" stroke="#000" stroke-linecap="round" stroke-linejoin="round" stroke-width="1.68">
  <path id="path1059" d="m23.1 56 43.5-16.5c3.66-1.18 7.04 17.1 3.42 17.3z" fill="#f60" stop-color="#000000" style="font-variation-settings:normal"/>
  <g fill="#f00">
   <path id="path1117" d="m39 50.3 0.508 3.44" stop-color="#000000" style="font-variation-settings:normal"/>
   <path id="path1119" d="m51 56.2-1.05-6.18" stop-color="#000000" style="font-variation-settings:normal"/>
   <path id="path1123" d="m55.3 50.9 1.1 5.56" stop-color="#000000" style="font-variation-settings:normal"/>
   <path id="path1125" d="m59.8 42.2 1.3 6.56" stop-color="#000000" style="font-variation-settings:normal"/>
  </g>
 </g>
</svg>
